<svg width="150" height="100" viewBox="0 0 150 100" fill="none" xmlns="http://www.w3.org/2000/svg">
<g id="Frame 1">
<g id="Group a">
<path id="a1" opacity="0.7" d="M66.5 47.4019C68.5 48.5566 68.5 51.4434 66.5 52.5981L38 69.0526C36 70.2073 33.5 68.7639 33.5 66.4545V33.5455C33.5 31.2361 36 29.7927 38 30.9474L66.5 47.4019Z" fill="#FFAA98"/>
<path id="a2" opacity="0.7" d="M48.5 47.4019C50.5 48.5566 50.5 51.4434 48.5 52.5981L20 69.0526C18 70.2073 15.5 68.7639 15.5 66.4545V33.5455C15.5 31.2361 18 29.7927 20 30.9474L48.5 47.4019Z" fill="#FFAA98"/>
</g>
<g id="Group b">
<path id="b1" opacity="0.7" d="M48.5 47.4019C50.5 48.5566 50.5 51.4434 48.5 52.5981L20 69.0526C18 70.2073 15.5 68.7639 15.5 66.4545V33.5455C15.5 31.2361 18 29.7927 20 30.9474L48.5 47.4019Z" fill="#FF0000"/>
</g>
</g>
</svg>
